<svg width="252" height="51" viewBox="0 0 252 51" fill="none" xmlns="http://www.w3.org/2000/svg">
<g clip-path="url(#clip0_2_4)">
<path d="M15.2325 0.0335693H27.0181V9.93914H14.4673C12.202 9.93914 10.4843 10.7288 9.31419 12.3081C7.72066 13.8899 6.50122 16.9426 5.65584 21.4664C5.48492 22.764 5.39099 24.0937 5.37579 25.4308C5.37579 29.2719 6.13507 32.8839 7.65361 36.2667C8.64757 38.0827 9.58102 39.2846 10.4541 39.8726C11.4112 40.692 12.7253 41.1019 14.3964 41.1019H27.0181V51.0037H14.988C11.9127 51.0037 9.635 50.2962 8.15453 48.8812C4.84529 46.1412 2.47477 41.6574 1.043 35.4298C0.344126 32.287 -0.0107926 28.9083 -0.000260574 25.4981C-0.000260574 17.9105 1.58665 11.4337 4.76049 6.06808C6.83781 3.08134 8.7166 1.31769 10.3969 0.77714C11.2567 0.283917 12.8686 0.0360603 15.2325 0.0335693ZM12.9547 20.6182H27.0181V30.4153H12.9547V20.6182Z" fill="white"/>
<path d="M44.6232 23.6373V31.0133H30.9761V23.6373H44.6232Z" fill="white"/>
<path d="M45.7695 0.0709229H60.7419C66.1666 0.0709229 69.9314 4.56224 72.0364 13.5449C72.553 16.1197 72.8124 18.854 72.8016 21.6083C72.8016 27.5869 71.5696 32.8179 69.1057 37.3019C67.5872 39.8476 65.7262 41.5689 63.5227 42.4656C62.6695 42.6934 61.8085 42.7997 60.947 42.7833L51.1652 42.9964V50.9887H45.7319V32.9262H60.523C62.4531 32.9262 63.8658 32.2425 64.7612 30.875C65.9063 29.4849 66.728 27.243 67.2264 24.1491C67.3128 23.4402 67.3623 22.7167 67.3743 21.9895V20.9246C67.3743 18.2591 66.7708 15.666 65.5638 13.1451C64.3069 11.0501 62.9132 10.0014 61.3829 9.99891H45.7695V0.0709229Z" fill="white"/>
<path d="M75.5977 0.0709229H81.0111V24.1566C81.0111 30.8998 82.3739 35.8035 85.0994 38.8674C86.2945 40.362 87.8814 41.1093 89.86 41.1093H102.666V51.0112H90.0432C86.6252 51.0112 83.8931 49.6547 81.8473 46.9421C81.278 46.394 80.4221 45.07 79.2796 42.9702C77.7992 39.8116 76.7973 36.6292 76.274 33.4233C75.827 30.9945 75.6028 27.5158 75.6016 22.9872L75.5977 0.0709229Z" fill="white"/>
<path d="M120.103 0H132.528V51H127.137V9.93919L122.322 9.97281H121.164C118.476 9.97281 116.981 10.1858 116.683 10.6118C115.055 11.4632 113.621 13.3166 112.609 15.8803C111.414 19.1185 110.816 22.337 110.816 25.5355C110.816 29.4962 111.625 33.1393 113.244 36.4648C114.327 38.4229 115.261 39.601 116.044 39.9996C116.833 40.747 118.183 41.1206 120.095 41.1206H123.843V50.9888H119.354C116.018 50.9888 113.2 49.326 110.897 46.0005C109.23 43.5095 108.117 41.2464 107.556 39.2112C106.161 35.0163 105.464 30.7256 105.465 26.3388V24.8443C105.465 18.7163 106.679 13.0928 109.106 7.97377C110.573 5.27848 111.774 3.57587 112.707 2.86593C113.593 2.00027 114.526 1.32356 115.49 0.848195C116.547 0.282732 118.085 0 120.103 0Z" fill="white"/>
<path d="M146.216 51V42.6524C144.048 41.5539 142.022 39.6276 140.26 36.9916C138.781 34.4707 137.815 32.372 137.368 30.6957C136.745 28.8008 136.261 26.7544 135.93 24.6125C135.535 22.256 135.338 19.0488 135.338 14.9909V0.0709229H140.752V15.4542C140.752 19.9381 141.212 23.3931 142.133 25.8194C142.318 26.5966 142.914 27.8346 143.922 29.5335C145.317 31.7055 147.065 32.8929 148.87 32.8929C150.675 32.8929 152.423 31.7055 153.817 29.5335C154.825 27.8322 155.423 26.5941 155.61 25.8194C156.531 23.3906 156.99 19.9357 156.99 15.4542V0.0709229H162.403V14.9946C162.403 19.0525 162.207 22.2598 161.812 24.6163C161.493 26.7663 161.008 28.8158 160.375 30.6994C159.927 32.3732 158.969 34.472 157.501 36.9953C155.732 39.6249 153.7 41.5491 151.527 42.6524V51H146.216Z" fill="white"/>
<path d="M180.431 0.0335693H192.21V9.93912H179.661C177.398 9.93912 175.68 10.7288 174.511 12.3081C172.917 13.8899 171.698 16.9426 170.852 21.4664C170.681 22.764 170.588 24.0937 170.572 25.4308C170.572 29.2719 171.33 32.8839 172.848 36.2667C173.843 38.0827 174.777 39.2846 175.648 39.8726C176.607 40.6971 177.922 41.1105 179.593 41.1131H192.214V51.0149H180.184C177.112 51.0149 174.834 50.3074 173.352 48.8925C170.043 46.1524 167.672 41.6685 166.241 35.441C165.54 32.2967 165.185 28.9149 165.196 25.5018C165.196 17.9142 166.783 11.4375 169.955 6.07181C172.036 3.08258 173.916 1.31769 175.597 0.77714C176.456 0.283918 178.067 0.0360603 180.431 0.0335693ZM178.155 20.6182H192.21V30.4153H178.155V20.6182Z" fill="white"/>
<path d="M195.066 0.0335693H212.352C215.407 0.0335693 217.797 1.76608 219.52 5.23109C220.188 6.3384 220.734 7.68434 221.126 9.19182C221.766 11.4991 222.111 14.0588 222.133 16.6649V18.1146C222.133 21.8512 221.279 25.4943 219.57 29.0441C218.475 31.0369 217.479 32.3098 216.584 32.8628C218.848 37.4413 219.98 43.4895 219.98 51.0074H214.549V50.2302C214.549 44.6652 213.361 40.2437 210.984 36.9654C209.626 35.1495 207.852 34.2415 205.659 34.2415H195.066V24.4033H212.687C214.616 24.4033 215.923 22.5998 216.608 18.9927C216.683 18.2454 216.732 17.6477 216.757 17.1543C216.757 15.1491 216.316 13.3332 215.432 11.7065C214.75 10.6281 213.893 10.0288 213.005 10.0101C213.005 9.91671 212.744 9.86813 212.216 9.86813H195.059L195.066 0.0335693Z" fill="white"/>
<path d="M233.483 0.0709301H251.608V10.5332H233.313C231.885 10.5332 231.008 11.8647 230.683 14.5276V15.2749C230.683 16.8542 231.15 18.1745 232.083 19.2356C232.368 19.4478 232.672 19.5556 232.978 19.5532H242.178C244.545 19.5532 246.15 20.0129 246.995 20.9321C249.087 22.7031 250.533 25.4034 251.333 29.0329C251.767 31.1176 251.995 33.3351 252.006 35.5755C252.006 40.6672 250.749 44.958 248.235 48.4479C247.437 49.3856 246.568 50.0899 245.66 50.5365C244.938 50.843 243.737 50.9962 242.057 50.9962H224.958L224.938 40.5339H243.307C244.85 40.5339 245.837 39.0954 246.265 36.2181L246.302 35.2654C246.302 33.2351 245.777 31.6783 244.725 30.5947C244.276 30.1886 243.783 29.9949 243.287 30.0305H232.965C230.264 30.0305 228.012 27.7885 226.208 23.3047C225.455 21.0482 225.046 18.4414 225.025 15.7719V14.3893C225.025 9.15819 226.369 5.02059 229.058 1.97656C230.166 0.703651 231.641 0.0684391 233.483 0.0709301Z" fill="white"/>
</g>
<defs>
<clipPath id="clip0_2_4">
<rect width="252" height="51" fill="white"/>
</clipPath>
</defs>
</svg>
